<svg xmlns="http://www.w3.org/2000/svg" width="375" height="211" viewBox="0 0 375 211"><path fill="#D45135" d="M0 0h375v211H0z"/><g fill="#722920"><path d="M40.632 88.14c0-2.047.928-4 2.784-5.856 1.855-1.855 4.032-2.784 6.528-2.784 2.144 0 3.784.785 4.92 2.352 1.136 1.568 1.704 3.744 1.704 6.528 0 2.123-.51 5.042-1.53 8.758s-2.005 7.145-2.953 10.286c-.948 3.142-1.42 5.48-1.42 7.02 0 .575.08.99.24 1.25.16.255.463.384.91.384 1.313 0 2.945-.96 4.897-2.88 1.952-1.92 3.8-4.25 5.544-6.985 1.744-2.735 3.232-5.735 4.464-9 1.23-3.264 1.848-6.127 1.848-8.592 0-3.103-1.072-5.007-3.216-5.71.416-.897.944-1.577 1.584-2.04.64-.464 1.25-.697 1.826-.697.94 0 1.782.576 2.527 1.728.745 1.153 1.118 2.658 1.118 4.513 0 3.392-1.195 7.616-3.584 12.672-2.39 5.057-5.323 9.512-8.804 13.368-3.48 3.855-6.566 5.784-9.26 5.784-1.12 0-2.168-.32-3.144-.96-.977-.64-1.464-1.744-1.464-3.313 0-1.248.48-3.336 1.438-6.264.96-2.928 1.92-6.264 2.88-10.008.96-3.744 1.44-7.23 1.44-10.464 0-1.855-.207-3.27-.623-4.248-.417-.976-1.185-1.464-2.304-1.464-1.52 0-2.676.785-3.468 2.352-.792 1.568-1.188 3.232-1.188 4.992 0 1.152.246 2.192.74 3.12-1.496 0-2.608-.352-3.34-1.056-.73-.704-1.095-1.632-1.095-2.784zM69.192 110.363c0-2.9 1.352-5.89 4.054-8.967 2.703-3.078 5.494-4.616 8.373-4.616 2.37 0 3.556 1.056 3.556 3.168 0 2.304-1.258 4.352-3.774 6.144-2.516 1.793-5.32 2.848-8.417 3.168-.064.32-.097.688-.097 1.104 0 .32.024.625.072.912.048.288.177.68.386 1.176.208.497.595.896 1.158 1.2.563.305 1.262.456 2.1.456 1.95 0 3.942-.792 5.975-2.376 2.03-1.584 3.67-3.56 4.92-5.928l.96.77c-1.28 2.864-3.113 5.173-5.497 6.924-2.384 1.75-4.857 2.626-7.42 2.626-2.007 0-3.566-.54-4.68-1.618-1.114-1.08-1.67-2.46-1.67-4.143zm4.323-2.88c1.865-.224 3.835-1.15 5.91-2.784 2.074-1.633 3.11-3.296 3.11-4.993 0-.607-.272-.912-.82-.912-1.415 0-2.958.93-4.63 2.784-1.673 1.856-2.863 3.824-3.57 5.903z"/><path d="M84.55 113.388c0-.032.29-.75.865-2.16.576-1.407 1.12-2.986 1.632-4.736.512-1.75.768-3.23.768-4.438.688-.746 1.5-1.12 2.438-1.12 1.094 0 1.642.466 1.642 1.4 0 .857-.266 2.27-.797 4.24 3.274-4.29 6.308-6.434 9.102-6.434 1.294 0 2.298.43 3.01 1.292.713.86 1.07 1.887 1.07 3.077 0 1.055-.32 2.358-.96 3.91s-.96 2.65-.96 3.288c0 .93.393 1.393 1.18 1.393 1.056 0 2.2-.727 3.432-2.183 1.23-1.456 2.344-3.176 3.336-5.16l.816.67c-2.528 5.73-5.4 8.593-8.617 8.593-1.217 0-2.162-.305-2.835-.912s-1.01-1.408-1.01-2.4c0-.64.225-1.68.673-3.12.448-1.44.672-2.51.672-3.215 0-1.248-.56-1.872-1.682-1.872-.892 0-1.84.36-2.842 1.08-1.004.72-2.04 1.785-3.105 3.193-1.067 1.408-1.887 2.544-2.46 3.408l-2.247 3.6c-1.375 0-2.415-.465-3.12-1.392z"/><path d="M108.31 111.093c0-1.788.656-3.822 1.968-6.104 1.312-2.283 3.055-4.286 5.232-6.01 2.176-1.723 4.32-2.584 6.432-2.584 1.568 0 2.352.524 2.352 1.57 0 .517-.192.888-.576 1.114-.257-.35-.816-.524-1.68-.524-1.64 0-3.24.747-4.8 2.24-1.56 1.495-2.758 3.156-3.594 4.982-.836 1.828-1.254 3.376-1.254 4.648 0 1.334.515 2.002 1.544 2.002 1.38 0 3.067-1.16 5.06-3.48 1.99-2.32 3.726-5.37 5.204-9.152l1.872-4.764 1.872-4.523c.768-1.852 1.424-3.31 1.968-4.38.544-1.07 1.144-2.177 1.8-3.326.656-1.15 1.256-1.987 1.8-2.513.543-.526 1.056-.79 1.536-.79.352 0 .664.137.936.408.27.27.408.614.408 1.03 0 .67-.576 2.2-1.728 4.593l-3.696 7.66c-1.344 2.694-2.592 5.698-3.744 9.013-1.152 3.315-1.728 6.135-1.728 8.462 0 .764.072 1.28.216 1.55.144.27.392.405.744.405 1.087 0 2.335-.635 3.744-1.906 1.408-1.27 2.64-2.988 3.696-5.15l.912.763c-1.056 2.64-2.513 4.797-4.368 6.47-1.856 1.675-3.696 2.512-5.52 2.512-2.336 0-3.504-1.422-3.504-4.264 0-.73.127-1.764.384-3.1-1.577 2.293-3.2 4.125-4.873 5.497-1.672 1.37-3.2 2.058-4.583 2.058-1.044 0-1.978-.375-2.8-1.125-.82-.752-1.232-1.846-1.232-3.282z"/><path d="M132.263 111.228c0-1.28.336-2.968 1.008-5.063.673-2.096 1.586-4.024 2.74-5.785 1.152-1.76 2.29-2.64 3.41-2.64.413 0 .756.12 1.027.36s.407.587.407 1.036c0 .417-.406 1.292-1.216 2.624-.81 1.332-1.626 2.84-2.448 4.527-.822 1.685-1.232 3.137-1.232 4.356 0 .995.173 1.67.52 2.022.35.354.885.53 1.613.53 2.522 0 5.027-2.454 7.516-7.363l.72.77c-1.118 2.807-2.536 4.99-4.256 6.553-1.72 1.563-3.568 2.344-5.543 2.344-1.357 0-2.407-.4-3.15-1.2s-1.114-1.824-1.114-3.072zm7.487-19.25c0-.735.408-1.383 1.224-1.943.816-.56 1.688-.84 2.616-.84 1.375 0 2.064.592 2.064 1.776 0 .673-.368 1.32-1.104 1.945-.736.624-1.536.936-2.4.936-.672 0-1.24-.16-1.704-.48-.464-.318-.696-.782-.696-1.39z"/><path d="M142.533 113.388c0-.032.288-.75.864-2.16.576-1.407 1.12-2.986 1.632-4.736.51-1.75.767-3.23.767-4.438.688-.746 1.5-1.12 2.438-1.12 1.094 0 1.642.466 1.642 1.4 0 .857-.266 2.27-.797 4.24 3.274-4.29 6.308-6.434 9.102-6.434 1.294 0 2.298.43 3.01 1.292.713.86 1.07 1.887 1.07 3.077 0 1.055-.32 2.358-.96 3.91s-.96 2.65-.96 3.288c0 .93.393 1.393 1.18 1.393 1.056 0 2.2-.727 3.432-2.183 1.23-1.456 2.344-3.176 3.336-5.16l.816.67c-2.528 5.73-5.4 8.593-8.617 8.593-1.218 0-2.163-.305-2.836-.912s-1.01-1.408-1.01-2.4c0-.64.225-1.68.673-3.12.448-1.44.672-2.51.672-3.215 0-1.248-.562-1.872-1.683-1.872-.892 0-1.84.36-2.842 1.08-1.004.72-2.04 1.785-3.105 3.193-1.067 1.408-1.887 2.544-2.46 3.408l-2.247 3.6c-1.375 0-2.415-.465-3.12-1.392z"/><path d="M166.198 124.472c0-.77.224-1.535.672-2.29.448-.756.928-1.383 1.44-1.88.51-.5 1.303-1.07 2.376-1.712 1.072-.644 1.88-1.094 2.424-1.352l2.736-1.35c.8-1.964 1.44-3.914 1.92-5.847-2.592 3.16-5.024 4.738-7.296 4.738-1.28 0-2.297-.434-3.048-1.3-.75-.867-1.128-2.013-1.128-3.438 0-3.253 1.48-6.18 4.44-8.783 2.96-2.603 5.928-3.904 8.904-3.904.99 0 1.752.18 2.28.54.528.36.792.8.792 1.324 0 .325-.096.62-.288.88-.192.26-.353.406-.48.438-.576-.585-1.264-.877-2.064-.877h-.096c-2.37 0-4.544 1.227-6.528 3.68-1.984 2.454-2.976 4.753-2.976 6.896 0 1.333.496 2 1.488 2 .864 0 1.927-.57 3.192-1.706 1.264-1.138 2.52-2.6 3.768-4.388.352-1.82.768-3.127 1.248-3.923s1.167-1.195 2.064-1.195c.416 0 .88.065 1.392.195 0 .834-.353 2.502-1.056 5.005-.704 2.502-1.553 5.102-2.544 7.796 1.6-.668 3.144-1.71 4.632-3.128 1.488-1.417 2.552-3.05 3.192-4.896l.864.878c-.704 1.993-1.96 3.796-3.768 5.41-1.808 1.613-3.656 2.847-5.544 3.7-3.168 7.677-6.387 11.516-9.656 11.516-.92 0-1.71-.26-2.366-.78-.657-.52-.986-1.27-.986-2.246zm2.303-.482c0 .9.29 1.35.867 1.35.64 0 1.47-.596 2.496-1.785 1.024-1.19 2.08-2.99 3.168-5.4-2.08 1.028-3.688 2-4.824 2.918-1.137.915-1.705 1.888-1.705 2.917zM200.42 88.38c0-2.092.96-4.087 2.88-5.985 1.92-1.898 4.192-2.848 6.817-2.848 3.68 0 5.52 2.08 5.52 6.24 0 2.4-.95 6.688-2.846 12.864-1.814 5.793-2.722 9.745-2.722 11.857 0 3.488 1.318 5.232 3.955 5.232 1.635 0 3.173-.73 4.615-2.186 1.44-1.456 2.564-3.072 3.365-4.85.8-1.774 1.426-3.606 1.875-5.495l1.28-5.137 1.28-5.088c.605-2.272 1.117-4.035 1.533-5.29l1.44-4.002c.545-1.446 1.064-2.5 1.56-3.16.497-.658.97-.988 1.417-.988.704 0 1.73.64 3.072 1.918-.61.45-1.617 2.497-3.025 6.145-1.408 3.648-2.735 7.89-3.983 12.72-1.248 4.834-1.872 8.722-1.872 11.666 0 1.914.327 3.19.983 3.835.656.642 1.832.963 3.528.963-.352.59-.935 1.074-1.75 1.45-.816.378-1.593.566-2.33.566-1.172 0-2.178-.518-3.015-1.547-.838-1.03-1.256-2.292-1.256-3.782 0-.254.03-1.086.095-2.494-2.66 4.863-6.07 7.295-10.235 7.295-2.14 0-3.81-.63-5.008-1.895-1.198-1.265-1.797-3.048-1.797-5.353 0-2.304.96-6.415 2.88-12.335 1.92-5.92 2.88-10.192 2.88-12.816 0-2.88-.863-4.32-2.592-4.32-1.49 0-2.67.865-3.54 2.593-.873 1.728-1.308 3.344-1.308 4.848 0 .993.19 2.017.576 3.073-2.846.003-4.27-1.23-4.27-3.694zM232.887 107.77c1.47-2.623 2.767-5.52 3.888-8.687-.3-.32-.45-.75-.45-1.296 0-.832.24-1.616.717-2.352.478-.736.94-1.104 1.39-1.104.362 0 .662.193.9.577.235.384.353.704.353.96 0 .128-.12.44-.36.936-.24.497-.36.776-.36.84.033.288.326.632.88 1.032.555.4 1.157.792 1.81 1.176.65.385 1.245.954 1.784 1.705.537.752.807 1.592.807 2.52 0 1.024-.425 2.432-1.272 4.224s-1.27 2.943-1.27 3.455c0 .736.406 1.104 1.222 1.104 1.408 0 2.977-.793 4.704-2.377 1.73-1.584 2.945-3.144 3.65-4.68l1.15.864c-.992 2.24-2.52 4.24-4.583 6-2.064 1.76-4.13 2.64-6.19 2.64-1.17 0-2.12-.32-2.847-.954-.728-.637-1.09-1.486-1.09-2.55 0-.928.447-2.4 1.343-4.416.896-2.016 1.345-3.392 1.345-4.128 0-1.217-.792-2.24-2.376-3.073-1.19 3.072-2.663 6.064-4.423 8.977l-.723-1.393zM251.973 88.14c0-2.047.928-4 2.784-5.856 1.855-1.855 4.016-2.784 6.48-2.784 2.143 0 3.792.8 4.943 2.4 1.152 1.6 1.73 3.873 1.73 6.816 0 3.21-.986 8.122-2.955 14.735-.14.427-.4 1.234-.786 2.42-.386 1.19-.7 2.155-.94 2.9-.244.746-.51 1.658-.795 2.736-.286 1.08-.43 2.063-.43 2.95 0 .605.072 1.024.216 1.263.146.237.425.356.84.356 1.6 0 3.473-1.345 5.617-4.033 2.144-2.688 4-5.703 5.568-9.047 1.567-3.344 2.512-6.12 2.832-8.328 1.12 0 2.04.32 2.76.96.72.64 1.08 1.296 1.08 1.968 0 .608-.593 2.288-1.776 5.04-2.335 5.44-3.503 9.312-3.503 11.616 0 .672.088 1.144.264 1.416.177.27.506.408.985.408 1.312 0 2.936-.977 4.872-2.93 1.936-1.95 3.768-4.31 5.496-7.08 1.728-2.766 3.216-5.774 4.464-9.023 1.248-3.248 1.872-6.055 1.872-8.424 0-2.816-1.09-4.593-3.265-5.33 1.095-1.79 2.287-2.687 3.575-2.687h.05c.868 0 1.666.512 2.392 1.536.724 1.023 1.087 2.463 1.087 4.32 0 2.495-.73 5.583-2.19 9.263-1.46 3.68-3.246 7.168-5.363 10.464-2.116 3.297-4.514 6.13-7.19 8.496-2.68 2.367-5.093 3.552-7.24 3.552-1.248 0-2.28-.376-3.097-1.128-.815-.752-1.224-1.752-1.224-3 0-.672.16-1.488.48-2.447-3.49 4.383-6.625 6.575-9.408 6.575h-.05c-.415 0-.84-.048-1.27-.144-.433-.095-.93-.27-1.488-.527-.56-.257-1.016-.696-1.368-1.32-.353-.624-.527-1.384-.527-2.28 0-1.31.703-4.255 2.11-8.832.12-.396.354-1.176.7-2.34s.6-2.002.755-2.522l.687-2.294c.292-1.023.503-1.87.633-2.543l.437-2.398c.162-.927.276-1.854.34-2.782s.1-1.855.1-2.784c0-2.047-.217-3.566-.65-4.558-.43-.992-1.19-1.488-2.278-1.488-1.456 0-2.597.72-3.42 2.16s-1.237 3.072-1.237 4.896c0 1.44.246 2.608.74 3.504-1.496 0-2.608-.352-3.34-1.056-.735-.704-1.1-1.632-1.1-2.784zM293.637 112.047c0-1.855.655-3.92 1.963-6.193 1.31-2.272 3.04-4.225 5.195-5.858 2.154-1.632 4.285-2.45 6.393-2.45 1.362 0 2.5.365 3.414 1.092.914.728 1.37 1.658 1.37 2.79 0 1.467-.85 2.232-2.55 2.295 1.074.35 1.61.814 1.61 1.388 0 .383-.443 1.35-1.33 2.896-.886 1.547-1.33 2.703-1.33 3.468 0 1.147.484 1.722 1.453 1.722.896 0 2.04-.62 3.432-1.865 1.392-1.242 2.743-3.108 4.056-5.595l.912.91c-1.185 2.663-2.656 4.805-4.416 6.425-1.76 1.62-3.54 2.432-5.336 2.432-1.267 0-2.24-.43-2.92-1.285-.682-.856-1.02-1.834-1.02-2.933-1.44 1.726-2.674 2.987-3.697 3.786-1.024.8-2.112 1.2-3.264 1.2-1.12 0-2.057-.37-2.81-1.104-.75-.736-1.126-1.775-1.126-3.12zm3.84.24c0 1.02.368 1.532 1.104 1.532.416 0 .856-.12 1.32-.36s.968-.597 1.513-1.075l1.487-1.436c.48-.48 1.024-1.103 1.633-1.868l1.424-1.818 1.377-1.865 1.14-1.58c.1-.16.236-.24.404-.24h.102l.1.05c.17-.51.254-1.1.254-1.77 0-1.658-.685-2.488-2.05-2.488-2.105 0-4.267 1.563-6.482 4.688s-3.325 5.868-3.325 8.227z"/><path d="M315.235 124.337c0-.765.225-1.515.674-2.247.448-.733.93-1.354 1.444-1.865.514-.51 1.31-1.076 2.385-1.697 1.074-.62 1.9-1.06 2.48-1.314l2.6-1.29c.543-1.37 1.31-3.864 2.298-7.48-2.457 3.488-4.754 5.232-6.892 5.232-1.068 0-2.023-.32-2.865-.96-.84-.64-1.26-1.647-1.26-3.024 0-1.73.55-3.904 1.648-6.528 1.1-2.624 2.036-3.936 2.813-3.936.32 0 .8.168 1.437.504.64.336 1.02.696 1.15 1.08-.607.833-1.27 2.225-1.987 4.176-.72 1.952-1.077 3.488-1.077 4.608 0 1.184.446 1.775 1.34 1.775h.05c1.785 0 3.89-1.935 6.316-5.807.03-.063.103-.424.214-1.08.11-.655.23-1.208.358-1.656.128-.448.415-.888.862-1.32.446-.432.99-.648 1.627-.648.13 0 .64.063 1.533.19-.033.8-.408 2.545-1.125 5.232-.718 2.688-1.556 5.313-2.513 7.87 3.638-1.504 6.205-4.208 7.705-8.112l.816.672c-1.213 4-4.26 7.086-9.144 9.258-3.233 7.686-6.435 11.53-9.603 11.53-.903 0-1.676-.27-2.32-.804-.642-.536-.965-1.32-.965-2.36zm1.872 0c0 .893.31 1.34.927 1.34.675 0 1.558-.68 2.65-2.032 1.092-1.355 2.167-3.23 3.228-5.618-4.537 2.262-6.805 4.366-6.805 6.31z"/></g></svg>