<svg version="1.1" xmlns="http://www.w3.org/2000/svg" width="20" height="20" viewBox="0 0 20 20"><path fill="#bdc3c7" d="M7.725 2.146c-1.016.756-1.29 1.953-1.24 2.59.065.78.223 1.793.223 1.793s-.313.17-.313.853c.11 1.717.683.976.8 1.73.285 1.813.934 1.49.934 2.48 0 1.65-.68 2.42-2.804 3.334C3.196 15.845 1 17 1 19v1h18v-1c0-2-2.197-3.155-4.328-4.072-2.123-.914-2.8-1.684-2.8-3.334 0-.99.646-.667.93-2.48.12-.754.693-.013.804-1.73 0-.684-.314-.854-.314-.854s.158-1.014.22-1.793c.066-.817-.397-2.56-2.3-3.096-.332-.34-.557-.88.467-1.423-2.24-.105-2.762 1.067-3.955 1.93z"/></svg>